<?xml version="1.0" encoding="utf-8"?><svg version="1.1" id="Layer_1" xmlns="http://www.w3.org/2000/svg" xmlns:xlink="http://www.w3.org/1999/xlink" x="0px" y="0px" viewBox="0 0 122.88 106.43" style="enable-background:new 0 0 122.88 106.43" xml:space="preserve">
<style type="text/css">.st0{fill-rule:evenodd;clip-rule:evenodd;}</style>
<g>
<path fill="#b4d7ea" class="st0" d="M11.1,0h35.63c3.05,0,5.85,1.25,7.85,3.25c2.03,2.03,3.25,4.8,3.25,7.85v31.46h-3.19V12.18H3.15v75.26l0,0 h7.61v11.61c0,1.58,0.27,3.1,0.77,4.51H11.1c-3.05,0-5.85-1.25-7.85-3.25C1.22,98.27,0,95.51,0,92.45V11.1 c0-3.05,1.25-5.85,3.25-7.85C5.28,1.22,8.04,0,11.1,0L11.1,0L11.1,0z M79.25,7.47c0.86-0.75,2.16-0.66,2.91,0.19 s0.66,2.16-0.19,2.91l-3.06,2.68c4.92,0.91,9.41,3.23,12.9,6.71c4.3,4.29,7.09,10.34,7.31,17.67c0.03,1.14-0.87,2.09-2.01,2.12 c-1.14,0.03-2.09-0.87-2.12-2.01c-0.19-6.19-2.51-11.27-6.1-14.85c-2.77-2.77-6.31-4.65-10.2-5.48l2.51,3.01 c0.73,0.88,0.62,2.18-0.26,2.91c-0.88,0.73-2.18,0.62-2.91-0.26l-5.72-6.85l0,0c-0.72-0.86-0.62-2.14,0.22-2.88L79.25,7.47 L79.25,7.47z M122.88,59.7v35.63c0,3.05-1.25,5.85-3.25,7.85c-2.03,2.03-4.8,3.25-7.85,3.25h-78.9c-3.05,0-5.85-1.25-7.85-3.25 c-2.03-2.03-3.25-4.8-3.25-7.85V59.7c0-3.05,1.25-5.85,3.25-7.85c2.03-2.03,4.79-3.25,7.85-3.25h78.9c3.05,0,5.85,1.25,7.85,3.25 C121.66,53.88,122.88,56.64,122.88,59.7L122.88,59.7L122.88,59.7z M35.41,77.49c0,2.51-2.03,4.57-4.57,4.57 c-2.51,0-4.57-2.03-4.57-4.57c0-2.51,2.03-4.57,4.57-4.57C33.36,72.92,35.41,74.95,35.41,77.49L35.41,77.49L35.41,77.49z M37.88,51.75v51.49h72.82V51.75H37.88L37.88,51.75z"/>
</g>
</svg>