<svg xmlns="http://www.w3.org/2000/svg" viewBox="0 0 48 48"><title>20-cupcake</title><g id="_20-cupcake" data-name="20-cupcake"><path d="M39.96,31.26A10.846,10.846,0,0,1,36,32a6.715,6.715,0,0,1-.99-.08A14.134,14.134,0,0,1,30,30c-1.92.99-3.7,2-6,2s-4.08-1.01-6-2a14.134,14.134,0,0,1-5.01,1.92A6.715,6.715,0,0,1,12,32a10.846,10.846,0,0,1-3.96-.74A11,11,0,0,1,12,10c.17,0,.33.02.5.03a13.981,13.981,0,0,1,23,0c.17-.01.33-.03.5-.03a11,11,0,0,1,3.96,21.26Z" style="fill:#ffb9d5"/><path d="M39.96,26.26A10.846,10.846,0,0,1,36,27a6.715,6.715,0,0,1-.99-.08A14.134,14.134,0,0,1,30,25c-1.92.99-3.7,2-6,2s-4.08-1.01-6-2a14.134,14.134,0,0,1-5.01,1.92A6.715,6.715,0,0,1,12,27a10.846,10.846,0,0,1-3.96-.74,10.991,10.991,0,0,1-6.749-7.741A10.956,10.956,0,0,0,8.04,31.26,10.846,10.846,0,0,0,12,32a6.715,6.715,0,0,0,.99-.08A14.134,14.134,0,0,0,18,30c1.92.99,3.7,2,6,2s4.08-1.01,6-2a14.134,14.134,0,0,0,5.01,1.92A6.715,6.715,0,0,0,36,32a10.846,10.846,0,0,0,3.96-.74,10.956,10.956,0,0,0,6.749-12.741A10.991,10.991,0,0,1,39.96,26.26Z" style="fill:#ff8fb8"/><path d="M39.96,29.26A10.846,10.846,0,0,1,36,30a6.715,6.715,0,0,1-.99-.08A14.134,14.134,0,0,1,30,28c-1.92.99-3.7,2-6,2s-4.08-1.01-6-2a14.134,14.134,0,0,1-5.01,1.92A6.715,6.715,0,0,1,12,30a10.846,10.846,0,0,1-3.96-.74,10.98,10.98,0,0,1-6.983-9.2C1.029,20.373,1,20.683,1,21A10.983,10.983,0,0,0,8.04,31.26,10.846,10.846,0,0,0,12,32a6.715,6.715,0,0,0,.99-.08A14.134,14.134,0,0,0,18,30c1.92.99,3.7,2,6,2s4.08-1.01,6-2a14.134,14.134,0,0,0,5.01,1.92A6.715,6.715,0,0,0,36,32a10.846,10.846,0,0,0,3.96-.74A10.983,10.983,0,0,0,47,21c0-.317-.029-.627-.057-.936A10.98,10.98,0,0,1,39.96,29.26Z" style="fill:#ff5f96"/><path d="M12,12c.17,0,.33.02.5.03a13.981,13.981,0,0,1,23,0c.17-.01.33-.03.5-.03a10.992,10.992,0,0,1,10.946,9.93c.026-.308.054-.615.054-.93A10.994,10.994,0,0,0,36,10c-.17,0-.33.02-.5.03a13.981,13.981,0,0,0-23,0c-.17-.01-.33-.03-.5-.03A10.994,10.994,0,0,0,1,21c0,.315.028.622.054.93A10.991,10.991,0,0,1,12,12Z" style="fill:#ffe1ed"/><path d="M18,30l2,17H16L13,32l-.01-.08A14.134,14.134,0,0,0,18,30Z" style="fill:#93d632"/><path d="M35.01,31.92,35,32,32,47H28l2-17A14.134,14.134,0,0,0,35.01,31.92Z" style="fill:#a7e340"/><path d="M13,32l3,15H12.78L8.04,31.26A10.846,10.846,0,0,0,12,32a6.715,6.715,0,0,0,.99-.08Z" style="fill:#b674f2"/><path d="M30,30,28,47H20L18,30c1.92.99,3.7,2,6,2S28.08,30.99,30,30Z" style="fill:#c78ff5"/><path d="M36,32a10.846,10.846,0,0,0,3.96-.74L35.22,47H32l3-15,.01-.08A6.715,6.715,0,0,0,36,32Z" style="fill:#c78ff5"/><path d="M26.35,1.77A3.993,3.993,0,1,1,24,1,3.915,3.915,0,0,1,26.35,1.77Z" style="fill:#d72878"/><path d="M24,9a4,4,0,0,1-3.7-2.49c-.41.112-.814.239-1.209.387a4.989,4.989,0,0,0,9.82,0c-.395-.148-.8-.275-1.209-.387A4,4,0,0,1,24,9Z" style="fill:#ff8fb8"/><path d="M19.09,6.9c.395-.148.8-.275,1.209-.387A3.994,3.994,0,0,1,20,5a3.9,3.9,0,0,1,.036-.406c-.3.089-.6.179-.9.287A4.969,4.969,0,0,0,19,6,5.005,5.005,0,0,0,19.09,6.9Z" style="fill:#ffb9d5"/><path d="M27.7,6.51c.41.112.814.239,1.209.387A5.005,5.005,0,0,0,29,6a5,5,0,0,0-.13-1.115c-.292-.109-.593-.2-.894-.287.013.132.024.266.024.4A3.994,3.994,0,0,1,27.7,6.51Z" style="fill:#ffb9d5"/><path d="M21,3a4.106,4.106,0,0,1,.061-.7,3.993,3.993,0,1,0,6.868,3.405A3.99,3.99,0,0,1,21,3Z" style="fill:#a00f5a"/><path d="M26,4H24c0-1.846,1.833-4,7-4V2C27.752,2,26,3.03,26,4Z" style="fill:#a7e340"/><path d="M13,31.92l.01.08.755,3.777A15.276,15.276,0,0,0,18.008,34l.5.259L18.008,30A14.123,14.123,0,0,1,13,31.92Z" style="fill:#86c42b"/><path d="M29.5,34.259c.166-.086.332-.173.5-.259a15.276,15.276,0,0,0,4.243,1.777L35,32l.01-.08A14.116,14.116,0,0,1,30,30Z" style="fill:#93d632"/><path d="M12.99,35.92c.254-.034.51-.084.766-.142L13,32l-.01-.08A6.715,6.715,0,0,1,12,32a10.846,10.846,0,0,1-3.96-.74l1.328,4.41A10.912,10.912,0,0,0,12,36,6.715,6.715,0,0,0,12.99,35.92Z" style="fill:#8f4cd6"/><path d="M18.5,34.26,20,47h4V36A11.648,11.648,0,0,1,18.5,34.26Z" style="fill:#b674f2"/><path d="M18.008,30l.5,4.258a11.637,11.637,0,0,0,5.5,1.74V32C21.707,32,19.927,30.991,18.008,30Z" style="fill:#8f4cd6"/><path d="M24.006,32v4a11.641,11.641,0,0,0,5.5-1.74L30,30C28.084,30.991,26.305,32,24.006,32Z" style="fill:#a260e5"/><path d="M36,32a6.713,6.713,0,0,1-.989-.08L35,32l-.755,3.777c.255.058.511.108.765.142A6.713,6.713,0,0,0,36,36a10.9,10.9,0,0,0,2.631-.33l1.328-4.408A10.861,10.861,0,0,1,36,32Z" style="fill:#a260e5"/><ellipse cx="34" cy="19" rx="1.148" ry="0.825" transform="translate(-3.473 29.619) rotate(-45.02)" style="fill:#a7e340"/><ellipse cx="35" cy="24" rx="1.148" ry="0.825" style="fill:#ff8fb8"/><ellipse cx="9.746" cy="18.5" rx="0.574" ry="0.413" transform="translate(-10.225 12.303) rotate(-44.98)" style="fill:#d261e8"/><ellipse cx="34.746" cy="14.5" rx="0.574" ry="0.413" transform="translate(-0.081 28.804) rotate(-44.98)" style="fill:#fff3c1"/><ellipse cx="42.746" cy="18.5" rx="0.574" ry="0.413" transform="translate(-0.568 35.63) rotate(-44.98)" style="fill:#fff3c1"/><ellipse cx="27.746" cy="14.5" rx="0.413" ry="0.574" style="fill:#d261e8"/><ellipse cx="16.746" cy="21.5" rx="0.413" ry="0.574" transform="translate(-10.297 18.129) rotate(-44.98)" style="fill:#d261e8"/><ellipse cx="18.746" cy="16.5" rx="0.413" ry="0.574" style="fill:#a7e340"/><ellipse cx="24" cy="19" rx="0.825" ry="1.148" transform="translate(-6.404 22.546) rotate(-45.02)" style="fill:#ff8fb8"/><ellipse cx="21" cy="24" rx="0.825" ry="1.148" transform="translate(-10.821 21.89) rotate(-45.02)" style="fill:#a7e340"/><ellipse cx="6" cy="21" rx="0.825" ry="1.148" transform="translate(-13.096 10.4) rotate(-45.02)" style="fill:#fff04a"/><ellipse cx="11" cy="22" rx="0.825" ry="1.148" transform="translate(-12.337 14.23) rotate(-45.02)" style="fill:#e0b8ff"/><ellipse cx="26" cy="24" rx="1.148" ry="0.825" transform="translate(-9.355 25.426) rotate(-45.02)" style="fill:#fff04a"/><ellipse cx="31" cy="17" rx="1.148" ry="0.825" transform="translate(-2.938 26.911) rotate(-45.02)" style="fill:#d261e8"/><ellipse cx="38" cy="15" rx="1.148" ry="0.825" transform="translate(0.529 31.276) rotate(-45.02)" style="fill:#a7e340"/><ellipse cx="40" cy="22" rx="1.148" ry="0.825" transform="translate(-3.836 34.743) rotate(-45.02)" style="fill:#e0b8ff"/><ellipse cx="20" cy="11" rx="0.825" ry="1.148" transform="translate(-1.922 17.356) rotate(-44.98)" style="fill:#fff3c1"/><ellipse cx="15" cy="14" rx="0.825" ry="1.148" style="fill:#ff8fb8"/><ellipse cx="31.003" cy="10.987" rx="1.642" ry="2.286" transform="translate(1.317 25.15) rotate(-45.02)" style="fill:#f6fafd"/><ellipse cx="23" cy="5" rx="0.825" ry="1.148" transform="translate(3.205 17.735) rotate(-45.02)" style="fill:#f6fafd"/><ellipse cx="28" cy="12" rx="0.825" ry="1.148" transform="translate(-0.28 23.323) rotate(-45.02)" style="fill:#f6fafd"/><ellipse cx="25.746" cy="5.5" rx="0.413" ry="0.574" transform="translate(3.656 19.824) rotate(-45.02)" style="fill:#f6fafd"/><path d="M41.484,18.434l.432-.652a.506.506,0,0,0,.025-.516A.5.5,0,0,0,41.5,17h-.691l-.362-.728a.519.519,0,0,0-.894,0L39.191,17H38.5a.5.5,0,0,0-.441.266.506.506,0,0,0,.025.516l.432.652-.455.839a.508.508,0,0,0,.055.564.5.5,0,0,0,.542.154L40,19.541l1.342.45a.508.508,0,0,0,.158.026.5.5,0,0,0,.384-.18.508.508,0,0,0,.055-.564Z" style="fill:#d261e8"/><path d="M15.484,18.434l.432-.652a.506.506,0,0,0,.025-.516A.5.5,0,0,0,15.5,17h-.691l-.362-.728a.519.519,0,0,0-.894,0L13.191,17H12.5a.5.5,0,0,0-.441.266.506.506,0,0,0,.025.516l.432.652-.455.839a.508.508,0,0,0,.055.564.5.5,0,0,0,.542.154L14,19.541l1.342.45a.508.508,0,0,0,.158.026.5.5,0,0,0,.384-.18.508.508,0,0,0,.055-.564Z" style="fill:#ff8fb8"/><path d="M21.727,15.711l.215-.323a.253.253,0,0,0,.012-.256A.248.248,0,0,0,21.735,15h-.342l-.18-.361a.257.257,0,0,0-.443,0L20.59,15h-.342a.249.249,0,0,0-.206.388l.214.323-.226.416a.249.249,0,0,0,.3.356l.666-.223.665.223a.236.236,0,0,0,.078.013.245.245,0,0,0,.19-.09.248.248,0,0,0,.028-.279Z" style="fill:#fff04a"/><path d="M9.727,23.711l.215-.323a.253.253,0,0,0,.012-.256A.248.248,0,0,0,9.735,23H9.393l-.18-.361a.257.257,0,0,0-.443,0L8.59,23H8.248a.249.249,0,0,0-.206.388l.214.323-.226.416a.249.249,0,0,0,.3.356l.666-.223.665.223a.236.236,0,0,0,.078.013.245.245,0,0,0,.19-.09.248.248,0,0,0,.028-.279Z" style="fill:#a7e340"/><path d="M30.727,20.711l.215-.323a.253.253,0,0,0,.012-.256A.248.248,0,0,0,30.735,20h-.342l-.18-.361a.257.257,0,0,0-.443,0L29.59,20h-.342a.249.249,0,0,0-.206.388l.214.323-.226.416a.249.249,0,0,0,.3.356l.666-.223.665.223a.236.236,0,0,0,.078.013.245.245,0,0,0,.19-.09.248.248,0,0,0,.028-.279Z" style="fill:#ff5f96"/><path d="M48,21A12.013,12.013,0,0,0,36,9h-.008a15.1,15.1,0,0,0-2.723-2.787L32.03,7.783A13.1,13.1,0,0,1,34.678,10.6a.982.982,0,0,0,.868.428l.2-.011c.085-.006.169-.013.255-.013a10,10,0,0,1,0,20,11.652,11.652,0,0,1-5.488-1.859,1,1,0,0,0-.969-.031l-.416.215A10.894,10.894,0,0,1,24,31a10.894,10.894,0,0,1-5.127-1.675l-.416-.215a1,1,0,0,0-.969.031A11.652,11.652,0,0,1,12,31a9.969,9.969,0,0,1-6.867-2.729L3.76,29.724a12.006,12.006,0,0,0,3.451,2.27L11.82,47.288a1,1,0,0,0,.958.712H35.222a1,1,0,0,0,.958-.711l.9-3-1.915-.578L34.479,46H33.22l2.6-13.01c.059,0,.119.01.178.01a11.944,11.944,0,0,0,2.475-.26l-2.7,8.971,1.916.578L40.789,32A12.014,12.014,0,0,0,48,21ZM28.789,31.736,27.111,46H20.889L19.211,31.736A10.746,10.746,0,0,0,24,33,10.746,10.746,0,0,0,28.789,31.736Zm-19.266,1A12.089,12.089,0,0,0,12,33c.059,0,.119-.008.178-.01l.641,3.206L14.78,35.8l-.619-3.1a15.122,15.122,0,0,0,3.018-1.128L18.875,46H16.82l-1.639-8.2L13.22,38.2,14.78,46H13.521ZM31.18,46H29.125l1.7-14.42a15.122,15.122,0,0,0,3.018,1.128Z"/><path d="M12,11c.086,0,.17.007.255.013l.2.011a.96.96,0,0,0,.868-.428A13.108,13.108,0,0,1,19.1,5.965a5,5,0,0,0,9.8.012,12.918,12.918,0,0,1,1.787.877l1.033-1.712a14.9,14.9,0,0,0-2.866-1.309A4.99,4.99,0,0,0,28.33,2.5L26.6,3.5A3,3,0,1,1,24,2V0a5,5,0,0,0-4.842,3.814A15.076,15.076,0,0,0,12.009,9H12A12,12,0,0,0,1.941,27.546l1.676-1.092A10,10,0,0,1,12,11Z"/><path d="M26,4c0-.97,1.752-2,5-2V0c-5.167,0-7,2.154-7,4Z"/><rect x="17" y="13" width="2" height="2"/><rect x="7" y="15" width="2" height="2"/><rect x="22" y="15" width="2" height="2"/><rect x="29" y="11" width="2" height="2"/><rect x="37" y="21" width="2" height="2"/><rect x="14" y="23" width="2" height="2"/></g></svg>