<svg id="Layer_1" data-name="Layer 1" xmlns="http://www.w3.org/2000/svg" viewBox="0 0 128 128"><title>GHOST</title><path fill="#9f9f9f" d="M114.828,45.71H98.958a2.454,2.454,0,0,1-2.451-2.451,32.507,32.507,0,0,0-65.014,0,2.454,2.454,0,0,1-2.451,2.451H13.172a1.683,1.683,0,0,0-1.714,1.6c0,9.4,11.123,13.134,16.035,14.322V56.079a2,2,0,0,1,4,0V113.11c0,1.688,3.7,4.138,9.5,4.138a15.319,15.319,0,0,0,7.52-1.746,7.839,7.839,0,0,1,7.966,0A15.319,15.319,0,0,0,64,117.248a15.319,15.319,0,0,0,7.52-1.746,7.841,7.841,0,0,1,7.966,0A15.319,15.319,0,0,0,87,117.248c5.8,0,9.5-2.45,9.5-4.138V56.079a2,2,0,1,1,4,0v5.549c4.914-1.2,16.035-4.942,16.035-14.317A1.683,1.683,0,0,0,114.828,45.71Zm-68.57-2.687a3.448,3.448,0,1,1,3.448,3.448A3.452,3.452,0,0,1,46.258,43.023ZM80.479,62.562a16.479,16.479,0,1,1-32.959,0v-1.41H80.479Zm-2.186-16.09a3.448,3.448,0,1,1,3.448-3.448A3.452,3.452,0,0,1,78.294,46.472Z"/></svg>