<svg xmlns="http://www.w3.org/2000/svg" viewBox="0 0 512 512"><title>Tips_Off</title><g id="Tips_Off" data-name="Tips Off"><g id="Tips_Off-2" data-name="Tips Off"><circle cx="256" cy="256" r="177" fill="#FFFF00"/><path fill="#808080" d="M254.4884,180.463c-21.1644.6939-45.6416,12.8754-45.6416,45.1143,0,16.33,9.6767,26.0154,19.9242,36.2718A108.034,108.034,0,0,1,240.07,274.3735H268.902a107.3425,107.3425,0,0,1,11.303-12.5244c10.2393-10.2564,19.9161-19.9422,19.9161-36.2718C300.1211,193.3384,275.6439,181.1569,254.4884,180.463Z"/><path fill="#4b5563" d="M256,73.8247c-100.6127,0-182.1788,81.5625-182.1788,182.1708a182.1793,182.1793,0,1,0,364.3586,0C438.1793,155.3872,356.6168,73.8247,256,73.8247Zm-1.5111,265.3335c-15.6627,0-28.3536-13.4559-28.3536-30.0762h56.7028C282.8376,325.7023,270.1412,339.1582,254.4884,339.1582Zm26.3052-45.8793h-52.62c-1.4193-15.4863-38.232-28.9953-38.232-67.7016,0-41.3,30.8844-63.1935,64.5381-64.02h.009c33.6528.8262,64.5336,22.72,64.5336,64.02C319.022,264.2836,282.2085,277.7926,280.7936,293.2789Z"/></g></g></svg>