
<svg xmlns="http://www.w3.org/2000/svg" viewBox="0 0 512 512">
    <!-- Gas Tank Elements -->
    <path d="M272.65,241.74h-5.838h-22.165h-42.661h-20.08c-44.553,0-80.67,36.119-80.67,80.667v100.838  c0,44.553,36.117,80.671,80.67,80.671h20.08h42.661h22.165h62.741c44.552,0,80.67-36.118,80.67-80.671V322.407  c0-44.548-36.118-80.667-80.67-80.667h-29.236" style="fill:#84C075;"/><rect height="100.837" style="fill:#A1DD90;" width="308.989" x="101.235" y="322.409"/><g style="opacity:0.1;">
<path d="M329.553,241.739h-28.189c-31.717,34.5-51.089,80.528-51.089,131.087s19.372,96.588,51.089,131.088   h28.189c44.552,0,80.67-36.118,80.67-80.671V322.405C410.222,277.858,374.105,241.739,329.553,241.739z" style="fill:#F5F5F5;"/>
</g><path d="M329.553,241.739h-28.189c-31.717,34.5-51.089,80.528-51.089,131.087s19.372,96.588,51.089,131.088   h28.189c44.552,0,80.67-36.118,80.67-80.671V322.405C410.222,277.858,374.105,241.739,329.553,241.739z" style="fill:#F5F5F5;"/><path d="M131.461,423.245V322.407c0-44.548,36.117-80.667,80.67-80.667h-10.144h-20.08  c-44.553,0-80.67,36.119-80.67,80.667v100.838c0,44.553,36.117,80.671,80.67,80.671h20.08h10.144  C167.578,503.916,131.461,467.798,131.461,423.245z" style="fill:#73BA60;"/>
    
    <!-- Bonfire Flame Elements -->
    <path d="M296.918,92.426C281.833,36.771,246.066,8.33,246.066,8.33s18.706,63.768-22.106,110.531  c-40.81,46.762-36.559,85.023-36.559,85.023c-11.053-45.913-51.864-65.468-51.864-65.468c28.908,36.559,6.236,109.398,6.236,109.398  c-5.735,23.085-5.443,41.983-1.157,57.484c11.547,52.465,58.283,91.732,114.219,91.732c52.998,0,97.707-35.257,112.078-83.583  c1.178-4.231,11.729-44.566-1.13-90.563c-15.755,23.906-77.77,45.109-64.451-49.605c2.756-19.58,2.728-37.452,0.832-53.599" style="fill:#FFC720;"/><path d="M278.362,48.132C262.915,21.732,246.066,8.33,246.066,8.33s18.706,63.768-22.106,110.531  c-19.282,22.094-28.501,42.287-32.866,57.447c0.566,0.593,1.134,1.204,1.699,1.824l-4.526,27.202l5.471,3.121l0,0  c0,0,19.451,7.74,24.398-9.134c0.178-0.773,0.369-1.561,0.574-2.368c0.013-0.069,0.03-0.131,0.043-0.202  c0.31-1.716,0.716-3.114,1.187-4.273c4.486-15.034,13.717-34.801,32.555-56.387C278.028,106.833,280.266,70.92,278.362,48.132z" style="fill:#F4B414;"/>
</svg>
