<svg xmlns="http://www.w3.org/2000/svg" viewBox="0 0 512 512"><title>Tips_On</title><g id="Tips_On" data-name="Tips On"><g id="Tips_On-2" data-name="Tips On"><circle cx="256" cy="256" r="177" fill="#FFFF00"/><path fill="#4b5563" d="M256,73.8206a182.1794,182.1794,0,1,0,0,364.3588c100.6083,0,182.18-81.5706,182.18-182.18S356.6083,73.8206,256,73.8206Zm-1.512,265.3327c-15.6618,0-28.3536-13.4559-28.3536-30.0672h56.7027C282.8371,325.6974,270.1417,339.1533,254.488,339.1533Zm26.3061-45.87h-52.62c-1.4193-15.4953-38.232-28.9953-38.232-67.7106,0-41.2911,30.8844-63.1845,64.5381-64.0108h.0081c33.6537.8263,64.53,22.72,64.53,64.0108C319.0216,264.2877,282.2089,277.7877,280.7941,293.283Z"/></g></g></svg>