<?xml version="1.0" encoding="UTF-8"?>
<!DOCTYPE svg PUBLIC "-//W3C//DTD SVG 1.1//EN" "http://www.w3.org/Graphics/SVG/1.1/DTD/svg11.dtd">
<!-- Creator: CorelDRAW -->
<svg xmlns="http://www.w3.org/2000/svg" xml:space="preserve" width="6.82666in" height="6.82666in" style="shape-rendering:geometricPrecision; text-rendering:geometricPrecision; image-rendering:optimizeQuality; fill-rule:evenodd; clip-rule:evenodd"
viewBox="0 0 6.82666 6.82666"
 xmlns:xlink="http://www.w3.org/1999/xlink">
 <defs>
  <style type="text/css">
   <![CDATA[
    .fil2 {fill:none}
    .fil0 {fill:#424242}
    .fil1 {fill:#64B5F6}
   ]]>
  </style>
 </defs>
 <g id="Layer_x0020_1">
  <metadata id="CorelCorpID_0Corel-Layer"/>
  <g id="_459867496">
   <path id="_459868168" class="fil0" d="M1.35333 0.853335l4.12 0c0.275,0 0.499996,0.224996 0.499996,0.499996l0 4.12c0,0.275 -0.224996,0.499996 -0.499996,0.499996l-4.12 0c-0.275,0 -0.499996,-0.224996 -0.499996,-0.499996l0 -4.12c0,-0.275 0.224996,-0.499996 0.499996,-0.499996zm0.0933386 0.426661l3.93333 0c0.0916693,0 0.166665,0.0749961 0.166665,0.166665l0 3.93333c0,0.0916693 -0.0749961,0.166665 -0.166665,0.166665l-3.93333 0c-0.0916693,0 -0.166665,-0.0749961 -0.166665,-0.166665l0 -3.93333c0,-0.0916693 0.0749961,-0.166665 0.166665,-0.166665z"/>
   <path id="_459868264" class="fil1" d="M1.59333 1.49332l3.64001 0c0.055,0 0.0999961,0.0449961 0.0999961,0.0999961l0 3.64001c0,0.055 -0.0449961,0.0999961 -0.0999961,0.0999961l-3.64001 0c-0.055,0 -0.0999961,-0.0449961 -0.0999961,-0.0999961l0 -3.64001c0,-0.055 0.0449961,-0.0999961 0.0999961,-0.0999961zm1.71288 1.92001l-0.855724 0.855728 -0.227602 0.227606 0.321874 0 1.73714 0 0.133335 0 0 -0.133335 0 -0.412571 -0.266669 0 0 0.279236 -1.28193 0 0.72239 -0.722394 0.0942677 -0.0942717 -0.0942677 -0.0942717 -0.72239 -0.722394 1.28193 0 0 0.279236 0.266669 0 0 -0.412571 0 -0.133335 -0.133335 0 -1.73714 0 -0.321874 0 0.227602 0.227606 0.855724 0.855728z"/>
  </g>
 </g>
 <rect class="fil2" width="6.82666" height="6.82666"/>
</svg>
