<?xml version="1.0" encoding="iso-8859-1"?>
<!-- Generator: Adobe Illustrator 19.0.0, SVG Export Plug-In . SVG Version: 6.00 Build 0)  -->
<svg xmlns="http://www.w3.org/2000/svg" xmlns:xlink="http://www.w3.org/1999/xlink" version="1.1" id="Layer_1" x="0px" y="0px" viewBox="0 0 512.001 512.001" style="enable-background:new 0 0 512.001 512.001;" xml:space="preserve">
<path style="fill:#FFC720;" /* large fire yellow */ d="M296.918,92.426C281.833,36.771,246.066,8.33,246.066,8.33s18.706,63.768-22.106,110.531  c-40.81,46.762-36.559,85.023-36.559,85.023c-11.053-45.913-51.864-65.468-51.864-65.468c28.908,36.559,6.236,109.398,6.236,109.398  c-5.735,23.085-5.443,41.983-1.157,57.484c11.547,52.465,58.283,91.732,114.219,91.732c52.998,0,97.707-35.257,112.078-83.583  c1.178-4.231,11.729-44.566-1.13-90.563c-15.755,23.906-77.77,45.109-64.451-49.605c2.756-19.58,2.728-37.452,0.832-53.599"/>
<path style="fill:#F4B414;" /* large fire shaded yellow */ d="M278.362,48.132C262.915,21.732,246.066,8.33,246.066,8.33s18.706,63.768-22.106,110.531  c-19.282,22.094-28.501,42.287-32.866,57.447c0.566,0.593,1.134,1.204,1.699,1.824l-4.526,27.202l5.471,3.121l0,0  c0,0,19.451,7.74,24.398-9.134c0.178-0.773,0.369-1.561,0.574-2.368c0.013-0.069,0.03-0.131,0.043-0.202  c0.31-1.716,0.716-3.114,1.187-4.273c4.486-15.034,13.717-34.801,32.555-56.387C278.028,106.833,280.266,70.92,278.362,48.132z"/>
<g> /* 3 LOGS outer brown layer */
	<path style="fill:#A67A4B;" d="M90.864,420.884c-45.721,0-82.788,37.067-82.788,82.788h165.577   C173.653,457.95,136.587,420.884,90.864,420.884z"/>
	<path style="fill:#A67A4B;" d="M255.561,420.884c-45.723,0-82.79,37.067-82.79,82.788h165.577   C338.349,457.95,301.282,420.884,255.561,420.884z"/>
	<path style="fill:#A67A4B;" d="M474.161,440.09c-14.363-11.992-32.852-19.207-53.025-19.207c-45.721,0-82.788,37.067-82.788,82.788   h165.575c0-16.002-4.541-30.943-12.401-43.606"/>
</g>
<g> /* 3 LOGS inner layer fillings light brown / yellow */
	<path style="fill:#FEC76D;" d="M90.864,454.89c-26.939,0-48.781,21.841-48.781,48.781h97.565   C139.647,476.732,117.805,454.89,90.864,454.89z"/>
	<path style="fill:#FEC76D;" d="M255.561,454.89c-26.942,0-48.784,21.841-48.784,48.781h97.565   C304.343,476.732,282.501,454.89,255.561,454.89z"/>
	<path style="fill:#FEC76D;" d="M421.136,454.89c-26.94,0-48.781,21.841-48.781,48.781h97.565   C469.92,476.732,448.077,454.89,421.136,454.89z"/>
</g>
<g> /* 3 LOGS outer layer shaded brown */
	<path style="fill:#996B42;" d="M105.897,422.271c-4.877-0.895-9.897-1.387-15.034-1.387c-45.721,0-82.788,37.067-82.788,82.788   h30.067C38.143,463.087,67.358,429.346,105.897,422.271z"/>
	<path style="fill:#996B42;" d="M270.595,422.271c-4.878-0.895-9.897-1.387-15.034-1.387c-45.723,0-82.79,37.067-82.79,82.788   h30.067C202.839,463.087,232.053,429.346,270.595,422.271z"/>
	<path style="fill:#996B42;" d="M436.223,422.261c-4.892-0.9-9.934-1.377-15.086-1.377c-45.721,0-82.788,37.067-82.788,82.788   h30.067C368.416,463.068,397.656,429.316,436.223,422.261z"/>
</g>
<g> /* 3 LOGS inner layer fillings shaded light brown / yellow */
	<path style="fill:#F4AC45;" d="M105.897,457.263c-4.736-1.534-9.786-2.372-15.034-2.372c-26.939,0-48.781,21.841-48.781,48.781   H72.15C72.15,481.979,86.316,463.601,105.897,457.263z"/>
	<path style="fill:#F4AC45;" d="M270.595,457.263c-4.737-1.534-9.786-2.372-15.034-2.372c-26.942,0-48.784,21.841-48.784,48.781   h30.067C236.845,481.979,251.013,463.601,270.595,457.263z"/>
	<path style="fill:#F4AC45;" d="M436.17,457.263c-4.736-1.534-9.786-2.372-15.034-2.372c-26.94,0-48.781,21.841-48.781,48.781   h30.067C402.422,481.979,416.589,463.601,436.17,457.263z"/>
</g>
<g> /* top right small shaded fire deep orange */
	<path style="fill:#F47D25;" d="M357.452,189.076c-0.547,0.027-1.102,0.044-1.67,0.045   C356.432,189.113,360.453,189.084,357.452,189.076z"/>
	<path style="fill:#F47D25;" d="M355.721,189.122c0.022,0,0.04-0.001,0.061-0.001C355.697,189.122,355.668,189.122,355.721,189.122z   "/>
	<path style="fill:#F47D25;" d="M380.93,166.408c0.128-0.793,0.225-1.581,0.3-2.364c1.761-17.329-7.418-30.971-7.418-30.971l0,0   c-1.369-2.218-3.071-4.56-5.183-6.981c-11.986-13.733-6.492-32.46-6.492-32.46s-20.725,16.48-16.23,48.44   c3.912,27.814-14.299,21.588-18.926,14.567c0,0,3.151,30.109,26.681,32.352c0.147,0.013,6.421,0.039,0,0.039   c-0.212,0,1.304,0.041,1.523,0.041c1.01,0,1.741,0,2.267,0.002c8.015-0.403,13.818-3.633,17.602-8.853   c3.363-4.299,5.102-9.085,5.868-13.759v0.006C380.925,166.449,380.928,166.43,380.93,166.408z"/>
</g> /* middle fire orange */
<path style="fill:#FF9A22;" d="M373.813,133.074c-1.369-2.218-3.071-4.56-5.183-6.981c-11.986-13.733-6.492-32.46-6.492-32.46  s-7.359,5.856-12.355,17.349c1.066,2.101,2.414,4.171,4.13,6.137c2.114,2.421,3.813,4.764,5.183,6.981  c0,0,9.178,13.641,7.418,30.971c-0.075,0.784-0.17,1.571-0.298,2.364c-0.004,0.022-0.006,0.041-0.009,0.062l-0.002-0.006  c-0.766,4.675-2.505,9.46-5.868,13.759c-3.784,5.219-9.586,8.45-17.602,8.853c3.001,0.009-1.02,0.038-1.67,0.045  c-0.022,0-0.04,0.001-0.061,0.001c-0.053,0-0.024,0,0.061-0.001c0.568-0.001,1.123-0.018,1.67-0.045  c-0.526-0.002-1.258-0.002-2.267-0.002c-0.216,0-1.735-0.041-1.52-0.041c6.421,0,0.145-0.026,0-0.039  c-0.911-0.087-1.781-0.229-2.631-0.395c3.952,4.782,9.516,8.622,17.347,9.368c0.148,0.013,6.421,0.039,0,0.039  c-0.212,0,1.304,0.041,1.523,0.041c1.01,0,1.741,0,2.267,0.002c8.015-0.403,13.818-3.633,17.602-8.853  c3.363-4.299,5.102-9.085,5.868-13.759v0.006c0.004-0.022,0.006-0.041,0.009-0.062c0.128-0.793,0.225-1.581,0.3-2.364  C382.991,146.715,373.813,133.074,373.813,133.074z"/> /* same: large fire shaded yellow */
<path style="fill:#F4B414;" d="M169.15,322.528c-4.286-15.501-4.579-34.398,1.157-57.484c0,0,17.026-54.715,2.742-93.104  c-16.016-23.208-37.513-33.524-37.513-33.524c28.908,36.559,6.236,109.398,6.236,109.398c-5.735,23.085-5.443,41.983-1.157,57.484  c8.214,37.32,34.242,67.946,68.713,82.526C189.358,371.465,174.896,348.633,169.15,322.528z"/> /* same: middle fire orange */
<path style="fill:#FF9A22;" d="M315.868,300.518c-8.73,13.248-43.098,25-35.718-27.491c8.482-60.313-30.626-91.413-30.626-91.413  s10.364,35.339-12.253,61.255c-22.616,25.916-20.259,47.12-20.259,47.12c-6.126-25.444-28.744-36.282-28.744-36.282  c16.022,20.262,3.456,60.629,3.456,60.629c-3.178,12.794-3.016,23.267-0.642,31.858c6.4,29.075,32.301,50.837,63.301,50.837  c29.37,0,54.148-19.54,62.114-46.322C317.149,348.363,322.995,326.009,315.868,300.518z"/> /* small fire deep red orange */
<path style="fill:#EF6131;" d="M269.493,395.245c22.481-40.912-15.13-63.953-15.13-63.953  c-29.893,26.092-25.907,48.699-16.537,63.598c5.285,1.392,10.832,2.139,16.556,2.139  C259.586,397.029,264.645,396.405,269.493,395.245z"/>
<g> /* black color outline */
	<path style="fill:#231F20;" d="M134.06,245.414c-0.046,0.15-0.088,0.3-0.126,0.452c-5.673,22.831-6.063,43.479-1.161,61.376   c6.06,27.306,21.399,52.111,43.208,69.859c21.204,17.258,47.723,27.082,75.047,27.921c0.168,0.008,0.335,0.014,0.503,0.02   c0.949,0.037,1.9,0.061,2.85,0.061c0.089,0,0.179-0.003,0.269-0.004c0.061,0,0.123,0.004,0.183,0.004   c0.433,0,0.861-0.022,1.293-0.026c0.159-0.004,0.32-0.004,0.479-0.01c26.83-0.369,52.257-9.074,73.63-25.274   c21.121-16.009,36.895-38.755,44.416-64.048c0.014-0.045,0.027-0.09,0.04-0.136c1.297-4.659,12.285-46.908-1.133-94.905   c-0.852-3.046-3.404-5.316-6.53-5.805c-3.12-0.487-6.249,0.893-7.991,3.535c-7.05,10.698-25.072,20.031-36.863,15.573   c-12.81-4.839-17.493-26.566-12.848-59.609c2.673-19,2.962-37.728,0.857-55.665c-0.52-4.43-4.54-7.587-8.962-7.08   c-4.43,0.52-7.6,4.532-7.08,8.962c1.945,16.565,1.672,33.903-0.809,51.534c-7.529,53.548,8.424,71.412,23.132,76.969   c14.475,5.465,32.183-0.097,44.806-9.897c6.857,37.378-1.007,67.957-2.122,71.99c-7.138,23.948-22.288,44.101-41.947,57.889   c2.953-4.992,5.334-10.382,7.032-16.093c0.014-0.044,0.026-0.088,0.039-0.132c0.746-2.679,7.078-26.972-0.629-54.535   c-0.852-3.047-3.405-5.315-6.53-5.805c-3.133-0.488-6.25,0.894-7.991,3.535c-2.382,3.614-8.605,7.642-13.726,7.642   c-2.565,0.001-3.798-1.039-4.585-1.945c-1.695-1.949-5.348-8.544-2.666-27.62c9.022-64.148-31.853-97.472-33.597-98.859   c-2.747-2.186-6.591-2.335-9.511-0.381c-2.92,1.952-4.241,5.578-3.272,8.954c0.09,0.312,8.751,31.542-10.582,53.694   c-8.726,9.999-14.069,19.47-17.328,27.58c-9.658-12.619-21.379-18.371-22.1-18.715c-3.389-1.623-7.452-0.696-9.799,2.241   c-2.347,2.937-2.357,7.104-0.026,10.052c10.927,13.818,5.204,43.106,2.079,53.218c-0.046,0.151-0.088,0.302-0.126,0.454   c-3.285,13.221-3.502,25.247-0.646,35.747c1.555,6.966,4.147,13.65,7.635,19.832c-20.981-15.284-36.536-37.892-42.372-64.405   c-0.03-0.14-0.066-0.279-0.103-0.417c-4.197-15.18-3.808-33.068,1.158-53.17c1.322-4.325,14.417-48.829,5.885-86.648   c9.642,9.744,19.6,23.726,24.107,42.446c0.994,4.126,5.007,6.748,9.192,6.047c4.186-0.705,7.107-4.556,6.692-8.778   c-0.034-0.352-3.024-35.746,34.612-78.871c26.581-30.457,29.769-67.069,28.092-91.396c10.552,13.352,23.465,34.014,30.987,61.764   c1.168,4.305,5.609,6.854,9.908,5.681c4.305-1.166,6.849-5.603,5.682-9.907c-15.6-57.551-52.076-87.075-53.622-88.304   c-2.755-2.19-6.613-2.346-9.534-0.379c-2.921,1.964-4.233,5.595-3.241,8.974c0.174,0.595,17.026,60.015-20.441,102.947   c-19.822,22.714-29.578,43.651-34.322,59.728c-17.084-28.696-43.123-41.473-44.528-42.146c-3.388-1.622-7.451-0.696-9.799,2.241   c-2.347,2.937-2.357,7.104-0.026,10.051C155.104,176.186,134.272,244.73,134.06,245.414z M254.91,341.803   c7.601,6.695,20.432,22.472,9.171,46.293c-1.219,0.215-2.45,0.387-3.689,0.521c-0.492,0.052-0.984,0.11-1.477,0.15   c-0.194,0.016-0.39,0.023-0.584,0.037c-0.667,0.046-1.334,0.086-2.002,0.11c-0.192,0.006-0.384,0.008-0.576,0.012   c-0.534,0.013-1.067,0.015-1.601,0.014c-0.614-0.004-1.223-0.026-1.835-0.041c-0.324-0.012-0.649-0.019-0.973-0.037   c-0.393-0.022-0.785-0.048-1.176-0.078c-0.391-0.029-0.781-0.061-1.171-0.098c-0.564-0.055-1.127-0.115-1.687-0.186   c-0.165-0.02-0.331-0.043-0.495-0.065c-1.271-0.173-2.528-0.396-3.775-0.655C235.193,372.865,239.178,357.432,254.91,341.803z    M199.509,316.485c0.737-2.436,5.489-18.917,4.876-36.526c1.999,3.459,3.69,7.423,4.773,11.919c1,4.147,5.059,6.851,9.251,6.111   c4.2-0.735,7.109-4.561,6.638-8.8c-0.065-0.743-1.358-18.474,18.308-41.011c11.647-13.346,15.61-28.69,16.453-41.504   c8.45,14.032,16.473,35.866,12.345,65.227c-2.652,18.863-0.475,32.477,6.471,40.467c4.265,4.906,10.065,7.499,16.773,7.499   c0.001,0,0.003,0,0.004,0c5.383,0,10.655-1.668,15.234-4.206c2.085,17.658-1.568,31.596-1.903,32.818   c-4.117,13.772-13.318,25.132-25.15,32.278c3.335-15.79-1.092-28.399-6.317-37.017c-7.522-12.407-18.231-19.057-18.683-19.334   c-3.013-1.842-6.87-1.518-9.53,0.802c-23.594,20.594-27.872,39.751-25.552,54.493c-12.168-7.937-21.269-20.417-24.533-35.245   c-0.03-0.14-0.065-0.278-0.103-0.416C196.712,336.252,196.928,326.982,199.509,316.485z"/> /* black color outline*/
	<path style="fill:#231F20;" d="M352.973,197.04c0.184,0.016,0.282,0.024,0.555,0.029c0.044,0.004,0.089,0.009,0.135,0.013   l0.32,0.026c0.247,0.017,0.513,0.02,0.774,0.027c0.317,0.038,0.639,0.062,0.965,0.062c0.029,0,0.072-0.001,0.112-0.001l0.518-0.004   c0.022,0,0.041,0,0.062,0l1.444-0.015c0.678-0.008,1.286-0.078,1.863-0.173c9.212-0.901,16.713-4.996,21.783-11.919   c3.802-4.902,6.28-10.681,7.366-17.184c0.017-0.093,0.032-0.191,0.047-0.289c0.142-0.892,0.257-1.805,0.349-2.752   c1.944-19.133-7.435-34.271-8.64-36.125c-1.678-2.705-3.664-5.38-5.91-7.953c-8.833-10.121-4.857-24.772-4.827-24.876   c0.992-3.379-0.32-7.01-3.241-8.974c-2.921-1.966-6.78-1.811-9.534,0.38c-0.994,0.789-24.28,19.767-19.201,55.886   c1.051,7.471,0.066,10.454-0.352,11.323c-1.289-0.164-3.232-1.412-3.833-2.324c-2.049-3.109-5.958-4.418-9.463-3.16   c-3.506,1.253-5.701,4.741-5.313,8.444C320.276,170.169,329.08,194.762,352.973,197.04z M349.583,165.41   c4.496-5.173,5.91-13.174,4.322-24.461c-1.213-8.623-0.326-15.897,1.452-21.811c1.491,4.153,3.775,8.353,7.188,12.263   c1.691,1.938,3.169,3.928,4.397,5.915c0.041,0.068,0.107,0.168,0.15,0.234c0.075,0.115,7.532,11.631,6.102,25.718   c-0.066,0.671-0.142,1.277-0.235,1.851c-0.005,0.029-0.01,0.06-0.015,0.089c-0.642,3.878-2.072,7.255-4.25,10.039   c-0.061,0.078-0.12,0.156-0.178,0.236c-2.476,3.415-6.166,5.22-11.278,5.517h-0.029c-0.336-0.034-0.683-0.055-1.043-0.058   l-1.034-0.01c-0.371-0.002-0.74-0.005-0.99-0.008c-6.997-0.777-11.492-5.327-14.35-10.348   C343.623,170.12,347.048,168.326,349.583,165.41z"/> /* black color outline */
	<path style="fill:#231F20;" d="M498.385,455.806c-2.353-3.789-7.332-4.953-11.12-2.603c-3.79,2.352-4.956,7.331-2.603,11.12   c5.898,9.501,9.554,20.181,10.751,31.271h-18.001c-3.935-27.539-27.666-48.781-56.276-48.781   c-28.609,0-52.339,21.243-56.274,48.781h-18.005c4.039-37.412,35.81-66.635,74.278-66.635c17.47,0,34.464,6.155,47.85,17.33   c3.424,2.859,8.518,2.4,11.375-1.023c2.859-3.424,2.4-8.517-1.023-11.375c-16.285-13.597-36.955-21.084-58.201-21.084   c-36.782,0-68.507,21.982-82.788,53.488c-14.281-31.506-46.005-53.488-82.788-53.488c-36.405,0-67.861,21.529-82.349,52.515   c-14.489-30.986-45.944-52.515-82.349-52.515C40.762,412.808,0,453.569,0,503.671c0,4.461,3.615,8.076,8.076,8.076h34.006h97.565   h33.125h0.881h33.125h97.565h34.006h34.006h97.565h34.004c4.461,0,8.076-3.615,8.076-8.076   C512,486.707,507.292,470.155,498.385,455.806z M90.864,428.96c38.353,0,70.043,29.05,74.235,66.3   c-0.011,0.111-0.015,0.223-0.026,0.334h-17.935c-3.935-27.539-27.666-48.781-56.276-48.781c-28.609,0-52.339,21.243-56.274,48.781   H16.584C20.624,458.182,52.395,428.96,90.864,428.96z M50.963,495.594c3.757-18.589,20.22-32.629,39.901-32.629   s36.145,14.04,39.903,32.629H50.963z M215.658,495.594c3.757-18.589,20.221-32.629,39.903-32.629   c19.68,0,36.143,14.04,39.901,32.629H215.658z M311.835,495.594c-3.935-27.539-27.665-48.781-56.274-48.781   s-52.341,21.243-56.276,48.781h-17.935c-0.01-0.111-0.015-0.224-0.026-0.335c4.193-37.251,35.882-66.3,74.235-66.3   c38.469,0,70.239,29.223,74.278,66.635H311.835z M381.236,495.594c3.757-18.589,20.22-32.629,39.901-32.629   c19.681,0,36.145,14.04,39.903,32.629H381.236z"/>
</g>
<g>
</g>
<g>
</g>
<g>
</g>
<g>
</g>
<g>
</g>
<g>
</g>
<g>
</g>
<g>
</g>
<g>
</g>
<g>
</g>
<g>
</g>
<g>
</g>
<g>
</g>
<g>
</g>
<g>
</g>
</svg>
