<?xml version="1.0" encoding="iso-8859-1"?>
<!-- Generator: Adobe Illustrator 19.0.0, SVG Export Plug-In . SVG Version: 6.00 Build 0)  -->
<svg xmlns="http://www.w3.org/2000/svg" xmlns:xlink="http://www.w3.org/1999/xlink" version="1.1" id="Layer_1" x="0px" y="0px" viewBox="0 0 511.999 511.999" style="enable-background:new 0 0 511.999 511.999;" xml:space="preserve">
<path style="fill:#84C075;" d="M272.65,241.74h-5.838h-22.165h-42.661h-20.08c-44.553,0-80.67,36.119-80.67,80.667v100.838  c0,44.553,36.117,80.671,80.67,80.671h20.08h42.661h22.165h62.741c44.552,0,80.67-36.118,80.67-80.671V322.407  c0-44.548-36.118-80.667-80.67-80.667h-29.236"/>
<rect x="101.235" y="322.409" style="fill:#A1DD90;" width="308.989" height="100.837"/>
<g style="opacity:0.1;">
	<path style="fill:#F5F5F5;" d="M329.553,241.739h-28.189c-31.717,34.5-51.089,80.528-51.089,131.087s19.372,96.588,51.089,131.088   h28.189c44.552,0,80.67-36.118,80.67-80.671V322.405C410.222,277.858,374.105,241.739,329.553,241.739z"/>
</g>
<path style="fill:#73BA60;" d="M131.461,423.245V322.407c0-44.548,36.117-80.667,80.67-80.667h-10.144h-20.08  c-44.553,0-80.67,36.119-80.67,80.667v100.838c0,44.553,36.117,80.671,80.67,80.671h20.08h10.144  C167.578,503.916,131.461,467.798,131.461,423.245z"/>
<path style="fill:#FF9F34;" d="M229.596,54.44c0,19.653,10.469,36.862,26.134,46.357c15.665-9.495,26.132-26.704,26.132-46.357  S271.395,17.579,255.73,8.084C240.064,17.579,229.596,34.787,229.596,54.44z"/>
<path style="fill:#EF6131;" d="M241.597,75.729c0,10.628,5.661,19.934,14.132,25.069c8.471-5.135,14.132-14.439,14.132-25.069  c0-10.628-5.661-19.934-14.132-25.069C247.258,55.795,241.597,65.101,241.597,75.729z"/>
<path style="fill:#F48F2A;" d="M255.73,36.11c11.802,7.154,20.651,18.686,24.299,32.344c1.193-4.469,1.833-9.166,1.833-14.013  c0-19.653-10.467-36.862-26.132-46.357c-15.665,9.495-26.134,26.703-26.134,46.357c0,4.846,0.639,9.544,1.833,14.013  C235.077,54.795,243.928,43.263,255.73,36.11z"/>
<rect x="235.778" y="147.079" style="fill:#B2D5F7;" width="39.914" height="48.581"/>
<polygon style="fill:#1DACE1;" points="257.991,120.097 253.469,120.097 242.492,120.097 242.492,131.074 242.492,136.106   242.492,147.083 253.469,147.083 257.991,147.083 268.967,147.083 268.967,136.106 268.967,131.074 268.967,120.097 "/>
<path style="fill:#51616B;" d="M330.873,241.757v-14.998c0-17.172-13.922-31.094-31.095-31.094H211.68  c-17.173,0-31.094,13.922-31.094,31.094v14.998"/>
<rect x="101.235" y="322.409" style="fill:#93D37F;" width="30.224" height="100.837"/>
<path style="fill:#42555E;" d="M241.904,195.665H211.68c-17.173,0-31.094,13.922-31.094,31.094v14.998h30.224v-14.998  C210.81,209.587,224.731,195.665,241.904,195.665z"/>
<g>
	<path style="fill:#231F20;" d="M251.525,107.701c0.005,0.003,0.01,0.006,0.015,0.01c0.966,0.585,2.023,0.951,3.104,1.097   c0.36,0.049,0.723,0.073,1.087,0.073c1.452,0,2.902-0.39,4.191-1.171c18.801-11.396,30.026-31.311,30.026-53.271   S278.722,12.565,259.921,1.17c-2.577-1.56-5.806-1.56-8.381,0c-18.803,11.397-30.028,31.311-30.028,53.271   C221.512,76.395,232.732,96.304,251.525,107.701z M249.681,75.729c0-5.668,2.197-10.936,6.048-14.848   c3.851,3.912,6.048,9.182,6.048,14.848s-2.197,10.936-6.048,14.848C251.878,86.666,249.681,81.396,249.681,75.729z M255.73,17.853   c11.386,8.692,18.048,22.032,18.048,36.587c0,1.268-0.069,2.521-0.168,3.768c-3.101-5.854-7.76-10.868-13.689-14.462   c-2.577-1.56-5.806-1.56-8.381,0c-5.931,3.595-10.589,8.609-13.69,14.464c-0.1-1.247-0.168-2.502-0.168-3.77   C237.68,39.887,244.343,26.546,255.73,17.853z"/>
	<path style="fill:#231F20;" d="M418.306,415.173v-84.694c4.35-0.132,7.838-3.69,7.838-8.071c0-4.466-3.618-8.084-8.084-8.084   h-0.138c-3.818-42.057-37.085-75.733-78.964-80.164v-7.4c0-21.603-17.576-39.178-39.179-39.178H283.77v-12.898h11.612v3.502   c0,4.466,3.618,8.084,8.084,8.084s8.084-3.618,8.084-8.084v-23.174c0-4.466-3.618-8.084-8.084-8.084s-8.084,3.618-8.084,8.084   v3.503H283.77v-11.431c0-3.999-2.905-7.31-6.717-7.96v-10.941h2.094c4.466,0,8.084-3.618,8.084-8.084   c0-4.466-3.618-8.084-8.084-8.084h-10.179h-26.476h-10.179c-4.465,0-8.084,3.618-8.084,8.084c0,4.466,3.62,8.084,8.084,8.084h2.094   v10.941c-3.813,0.65-6.717,3.961-6.717,7.96v40.498h-16.009c-21.603,0-39.178,17.575-39.178,39.178v7.4   c-41.887,4.432-75.157,38.119-78.967,80.185c-4.277,0.21-7.683,3.734-7.683,8.064c0,4.201,3.204,7.65,7.3,8.044V415.2   c-4.096,0.395-7.3,3.844-7.3,8.044c0,4.33,3.406,7.854,7.683,8.064c4.09,45.173,42.151,80.691,88.371,80.691h147.647   c46.213,0,84.27-35.507,88.369-80.671h0.138c4.466,0,8.084-3.618,8.084-8.084C426.145,418.863,422.657,415.304,418.306,415.173z    M260.883,128.181v10.817h-10.308v-10.817H260.883z M243.859,155.168h23.743v32.413h-23.743V155.168z M181.907,249.824h90.744   c4.465,0,8.084-3.618,8.084-8.084s-3.618-8.084-8.084-8.084h-83.979v-6.896c0-12.688,10.322-23.01,23.01-23.01h24.093h39.911   h24.093c12.689,0,23.011,10.322,23.011,23.01v6.896h-22.472c-4.465,0-8.084,3.618-8.084,8.084s3.62,8.084,8.084,8.084h29.236   c37.29,0,68.088,28.269,72.124,64.499h-34.533c-4.466,0-8.084,3.618-8.084,8.084s3.618,8.084,8.084,8.084h34.994v84.67H109.321   v-84.67h230.878c4.466,0,8.084-3.618,8.084-8.084s-3.618-8.084-8.084-8.084H109.783   C113.818,278.093,144.617,249.824,181.907,249.824z M329.553,495.832H181.907c-37.29,0-68.09-28.27-72.124-64.502h291.894   C397.642,467.561,366.842,495.832,329.553,495.832z"/>
</g>
<g>
</g>
<g>
</g>
<g>
</g>
<g>
</g>
<g>
</g>
<g>
</g>
<g>
</g>
<g>
</g>
<g>
</g>
<g>
</g>
<g>
</g>
<g>
</g>
<g>
</g>
<g>
</g>
<g>
</g>
</svg>
