<?xml version="1.0" encoding="utf-8"?>
<!-- Generator: Adobe Illustrator 22.0.1, SVG Export Plug-In . SVG Version: 6.00 Build 0)  -->
<svg version="1.1" id="Layer_1" xmlns="http://www.w3.org/2000/svg" xmlns:xlink="http://www.w3.org/1999/xlink" x="0px" y="0px"
	 viewBox="0 0 512 512" style="enable-background:new 0 0 512 512;" xml:space="preserve">
<style type="text/css">
	.st0{fill:#35216D;}
	.st1{fill:#EDF3FC;}
	.st2{fill:#330D84;}
	.st3{fill:#FFBE1B;}
	.st4{fill:#0061F3;}
	.st5{fill:#8C7BFD;}
	.st6{fill:#22d79e46;} /* Background */
	.st7{fill:#5932AE;}
	.st8{fill:#1C46C4;}
	.st9{fill:#6857E5;}
	.st10{fill:#5D8EF9;}
	.st11{fill:#8AC9F9;}
	.st12{fill:#FFE37B;}
	.st13{fill:#FFD000;}
	.st14{fill:#2EF39E;}
	.st15{fill:#330D84;stroke:#330D84;stroke-width:0.6306;stroke-linecap:round;stroke-linejoin:round;stroke-miterlimit:10;}
	.st16{fill:#FFFFFF;stroke:#FFFFFF;stroke-width:0.737;stroke-linecap:round;stroke-linejoin:round;stroke-miterlimit:10;}
	.st17{fill:none;}
	.st18{fill:#FDB813;}
</style>
<g>
	<g>
		<g>
			<path class="st1" d="M255.999,40.928c-118.778,0-215.071,96.294-215.071,215.074c0,118.776,96.292,215.067,215.071,215.067
				S471.07,374.778,471.07,256.002C471.07,137.222,374.777,40.928,255.999,40.928z"/>
		</g>
	</g>
	<g>
		<g>
			<path class="st1" d="M255.999,1C115.391,1,1,115.392,1,256.002C1,396.609,115.391,511,255.999,511S511,396.609,511,256.002
				C511,115.392,396.607,1,255.999,1z M255.999,502.831c-136.103,0-246.83-110.727-246.83-246.829
				c0-136.104,110.727-246.833,246.83-246.833c136.102,0,246.832,110.729,246.832,246.833
				C502.831,392.104,392.101,502.831,255.999,502.831z"/>
		</g>
	</g>
	<path class="st2" d="M135.585,195.297l2.748,0.689l-2.748,0.689c-16.092,4.032-28.651,16.595-32.682,32.688l-0.692,2.745
		l-0.69-2.745c-4.031-16.092-16.593-28.655-32.69-32.688l-2.738-0.689l2.738-0.689c16.097-4.032,28.659-16.599,32.69-32.682
		l0.69-2.743l0.692,2.743C106.934,178.699,119.493,191.265,135.585,195.297L135.585,195.297z"/>
	<path class="st10" d="M392.212,383.329l2.663,0.667l-2.663,0.667c-15.595,3.907-27.765,16.082-31.671,31.676l-0.671,2.66
		l-0.668-2.66c-3.906-15.595-16.08-27.769-31.679-31.676l-2.654-0.667l2.654-0.667c15.599-3.907,27.772-16.085,31.679-31.671
		l0.668-2.658l0.671,2.658C364.447,367.244,376.618,379.422,392.212,383.329L392.212,383.329z"/>
	<path class="st10" d="M299.189,415.12l1.41,0.353l-1.41,0.353c-8.256,2.069-14.698,8.514-16.766,16.769l-0.355,1.408l-0.354-1.408
		c-2.068-8.256-8.513-14.701-16.771-16.769l-1.405-0.353l1.405-0.353c8.258-2.069,14.702-8.515,16.771-16.766l0.354-1.407
		l0.355,1.407C284.49,406.605,290.933,413.052,299.189,415.12L299.189,415.12z"/>
	<path class="st3" d="M407.189,179.538l1.41,0.353l-1.41,0.353c-8.256,2.069-14.698,8.514-16.766,16.769l-0.355,1.408l-0.354-1.408
		c-2.068-8.256-8.513-14.701-16.771-16.769l-1.405-0.353l1.405-0.353c8.258-2.069,14.702-8.515,16.771-16.766l0.354-1.407
		l0.355,1.407C392.49,171.022,398.933,177.469,407.189,179.538L407.189,179.538z"/>
	<path class="st2" d="M94.36,256.598l1.284,0.322l-1.284,0.322c-7.517,1.883-13.384,7.752-15.267,15.269l-0.323,1.282l-0.322-1.282
		c-1.883-7.517-7.751-13.386-15.27-15.269l-1.279-0.322l1.279-0.322c7.519-1.883,13.387-7.754,15.27-15.267l0.322-1.281l0.323,1.281
		C80.977,248.844,86.843,254.714,94.36,256.598L94.36,256.598z"/>
	<circle class="st3" cx="256" cy="256" r="125"/>
	<circle class="st12" cx="256" cy="256" r="100"/>
	<circle class="st3" cx="256" cy="256" r="75"/>
	<circle class="st12" cx="256" cy="256" r="50"/>
	<circle class="st3" cx="256" cy="256" r="25"/>
	<path class="st2" d="M248.531,246.05l74.223-147.694c2.607-5.187,8.924-7.278,14.111-4.672l0,0
		c5.187,2.606,7.278,8.924,4.672,14.111l-74.223,147.694L248.531,246.05z"/>
	<path class="st10" d="M248.333,259.773l0.198-13.723l18.782,9.439l-10.894,8.348C253.084,266.392,248.272,263.973,248.333,259.773z
		"/>
	<polygon class="st10" points="351.145,151.884 312.483,165.607 338.338,114.158 377,100.436 	"/>
	<polygon class="st10" points="281.641,116.956 293.701,156.168 319.556,104.719 307.497,65.507 	"/>
</g>
</svg>
