<?xml version="1.0" encoding="utf-8"?>
<!-- Generator: Adobe Illustrator 24.2.1, SVG Export Plug-In . SVG Version: 6.00 Build 0)  -->
<svg version="1.1" id="icons" xmlns="http://www.w3.org/2000/svg" xmlns:xlink="http://www.w3.org/1999/xlink" x="0px" y="0px"
	 viewBox="0 0 256 256" style="enable-background:new 0 0 256 256;" xml:space="preserve">
<style type="text/css">
	.st0{stroke:#3D5A80;stroke-width:7;stroke-linecap:round;stroke-miterlimit:10;}
    .st1{stroke:#8C7BFD;stroke-width:7;stroke-linecap:round;stroke-miterlimit:10;}
    .st2{stroke:#7d69ff;stroke-width:7;stroke-linecap:round;stroke-miterlimit:10;}
    .st3{stroke:#da69ff;stroke-width:7;stroke-linecap:round;stroke-miterlimit:10;}
    .st4{stroke:#f85be3;stroke-width:7;stroke-linecap:round;stroke-miterlimit:10;}
    .st5{stroke:#fb4777;stroke-width:7;stroke-linecap:round;stroke-miterlimit:10;}
    .st6{stroke:#d31717;stroke-width:7;stroke-linecap:round;stroke-miterlimit:10;}
    .st7{stroke:#cdbc00;stroke-width:7;stroke-linecap:round;stroke-miterlimit:10;}
</style>
<g>
	<path class="st0" fill="#22d79e" d="M161.35,192.65l-32.93-41.79c-0.07-0.09-0.2-0.09-0.27,0l-37.34,47.38"/>
	<path class="st0" fill="#1fb0dc" d="M197.27,197.21l-32.07-40.7c-0.07-0.09-0.2-0.09-0.27,0l-9.22,11.7"/>
	<circle class="st0" fill="#cdbc00" cx="93" cy="133.46" r="10"/>
	<path class="st0" fill="#1fb0dc" d="M189,87.46h38.86c4.49,0,8.14,3.64,8.14,8.14v126.72c0,4.49-3.64,8.14-8.14,8.14H28.14
		c-4.49,0-8.14-3.64-8.14-8.14V95.6c0-4.49,3.64-8.14,8.14-8.14H137"/>
	<line class="st1" fill="#8C7BFD" x1="37" y1="109.46" x2="47" y2="109.46"/>
	<line class="st2" fill="#7d69ff" x1="37" y1="133.46" x2="47" y2="133.46"/>
	<line class="st3" fill="#da69ff" x1="37" y1="158.46" x2="47" y2="158.46"/>
	<line class="st4" fill="#f85be3" x1="37" y1="182.46" x2="47" y2="182.46"/>
	<line class="st5" fill="#fb4777" x1="37" y1="207.46" x2="47" y2="207.46"/>
	<path class="st0" fill="#111827" d="M118,106.46H67.61c-1.99,0-3.61,1.62-3.61,3.61v97.78c0,1.99,1.61,3.61,3.6,3.61l145.82,0.17
		c1.98,0,3.58-1.61,3.58-3.59v-98.99c0-1.99-1.62-3.6-3.61-3.59L170,105.7"/>
	<g>
		<path class="st0" fill="#22d79e" d="M223.73,27.03c1.95,1.95,1.99,5.11,0.08,7.11L167.4,93.22l-27.43,27.43c-3.19,3.19-6.92,5.8-11.02,7.7
			l-8.57,3.98c-0.56,0.26-1.22,0.14-1.66-0.29l0,0c-0.44-0.44-0.55-1.1-0.29-1.66l3.98-8.57c1.9-4.09,4.51-7.82,7.7-11.02
			l27.57-27.57l58.95-56.28C218.62,25.04,221.77,25.07,223.73,27.03L223.73,27.03z"/>
		<line class="st0" fill="#d31717" x1="158.09" y1="83.97" x2="166.78" y2="92.67"/>
		<line class="st0" fill="#cdbc00" x1="136.87" y1="105.19" x2="145.57" y2="113.88"/>
	</g>
</g>
</svg>
