<?xml version="1.0" encoding="iso-8859-1"?>
<!-- Generator: Adobe Illustrator 19.0.0, SVG Export Plug-In . SVG Version: 6.00 Build 0)  -->
<svg xmlns="http://www.w3.org/2000/svg" xmlns:xlink="http://www.w3.org/1999/xlink" version="1.1" id="Layer_1" x="0px" y="0px" viewBox="0 0 511.999 511.999" style="enable-background:new 0 0 511.999 511.999;" xml:space="preserve">
<path style="fill:#FCD170;" d="M49.567,282.934v179.535c0,22.88,18.549,41.429,41.432,41.429h179.535  c22.882,0,41.43-18.551,41.43-41.429V282.934H49.567z"/>
<path style="fill:#F4AC45;" d="M79.933,462.471V282.934H49.567v179.535c0,22.88,18.549,41.429,41.432,41.429h30.365  C98.481,503.9,79.933,485.349,79.933,462.471z"/>
<path style="fill:#FF9F34;" d="M137.827,84.27c0,32.293,17.199,60.568,42.938,76.168c25.74-15.6,42.938-43.875,42.938-76.168  s-17.199-60.569-42.938-76.169C155.026,23.701,137.827,51.976,137.827,84.27z"/>
<path style="fill:#F28920;" d="M180.765,39.376c21.486,13.023,37.011,34.88,41.559,60.532c0.9-5.078,1.379-10.301,1.379-15.638  c0-32.293-17.199-60.569-42.938-76.169c-25.74,15.6-42.938,43.876-42.938,76.169c0,5.335,0.478,10.559,1.378,15.638  C143.752,74.256,159.278,52.398,180.765,39.376z"/>
<path style="fill:#EF6131;" d="M157.544,119.248c0,17.464,9.3,32.753,23.221,41.191c13.921-8.437,23.221-23.726,23.221-41.191  c0-17.463-9.3-32.752-23.221-41.19C166.845,86.496,157.544,101.785,157.544,119.248z"/>
<path style="fill:#DB4C26;" d="M180.765,109.333c9.556,5.792,16.935,14.815,20.622,25.552c1.684-4.902,2.599-10.163,2.599-15.638  c0-17.463-9.3-32.752-23.221-41.19c-13.921,8.437-23.221,23.726-23.221,41.19c0,5.474,0.916,10.735,2.599,15.638  C163.83,124.148,171.207,115.126,180.765,109.333z"/>
<polyline style="fill:#D6D6D6;" points="247.56,229.023 247.56,282.934 117.016,282.934 117.016,178.336 247.56,178.336   247.56,202.022 "/>
<circle style="fill:#AAA9A9;" cx="87.203" cy="253.131" r="29.808"/>
<path style="fill:#FCD170;" d="M462.434,61.969v179.536c0,22.882-18.551,41.431-41.429,41.431H311.963V20.538h109.04  C443.883,20.538,462.434,39.089,462.434,61.969z"/>
<polyline style="fill:#FF9F34;" points="241.079,327.755 49.567,327.755 49.567,282.934 311.963,282.934 311.963,327.755   269.161,327.755 "/>
<rect x="117.012" y="178.337" style="fill:#C6C2C2;" width="30.36" height="104.602"/>
<path style="fill:#A09F9F;" d="M87.766,253.127c0-10.916,5.871-20.457,14.625-25.65c-4.447-2.637-9.636-4.158-15.182-4.158  c-16.464,0-29.809,13.345-29.809,29.808s13.344,29.808,29.809,29.808c5.546,0,10.735-1.52,15.182-4.158  C93.636,273.585,87.766,264.043,87.766,253.127z"/>
<rect x="311.961" y="20.543" style="fill:#F4AC45;" width="30.36" height="262.397"/>
<rect x="49.567" y="282.929" style="fill:#F28920;" width="30.36" height="44.821"/>
<g>
	<path style="fill:#231F20;" d="M421.004,12.438h-109.04c-4.475,0-8.1,3.626-8.1,8.1v254.296H255.66v-45.811   c0-4.475-3.626-8.1-8.1-8.1c-4.475,0-8.1,3.626-8.1,8.1v45.811H125.116v-88.399h114.343v15.586c0,4.475,3.626,8.1,8.1,8.1   c4.475,0,8.1-3.626,8.1-8.1v-23.686c0-4.475-3.626-8.1-8.1-8.1H117.016c-4.475,0-8.1,3.626-8.1,8.1v43.741   c-6.154-4.315-13.637-6.858-21.707-6.858c-20.903,0-37.91,17.005-37.91,37.909c0,8.07,2.542,15.554,6.858,21.708h-6.59   c-4.475,0-8.1,3.626-8.1,8.1v44.821v134.714c0,27.311,22.22,49.53,49.532,49.53h179.535c27.311,0,49.53-22.219,49.53-49.53V327.755   v-36.72h100.94c27.311,0,49.53-22.22,49.53-49.531V61.968C470.534,34.657,448.315,12.438,421.004,12.438z M65.5,253.127   c0-11.969,9.739-21.708,21.709-21.708c11.969,0,21.707,9.739,21.707,21.708c0,11.969-9.738,21.708-21.707,21.708   C75.238,274.834,65.5,265.096,65.5,253.127z M270.533,495.8H90.999c-18.379,0-33.331-14.952-33.331-33.329V335.857h183.411   c4.475,0,8.1-3.626,8.1-8.1s-3.626-8.1-8.1-8.1H57.667v-28.62h59.347h130.544h56.304v28.62h-34.703c-4.475,0-8.1,3.626-8.1,8.1   s3.626,8.1,8.1,8.1h34.703V462.47C303.863,480.847,288.911,495.8,270.533,495.8z M454.333,241.504   c0,18.379-14.952,33.33-33.329,33.33h-100.94V28.639h100.94c18.378,0,33.329,14.952,33.329,33.329V241.504z"/>
	<path style="fill:#231F20;" d="M141.987,211.707v37.859c0,4.475,3.626,8.1,8.1,8.1s8.1-3.626,8.1-8.1v-37.859   c0-4.475-3.626-8.1-8.1-8.1S141.987,207.233,141.987,211.707z"/>
	<path style="fill:#231F20;" d="M174.622,211.707v37.859c0,4.475,3.626,8.1,8.1,8.1c4.475,0,8.1-3.626,8.1-8.1v-37.859   c0-4.475-3.626-8.1-8.1-8.1C178.248,203.606,174.622,207.233,174.622,211.707z"/>
	<path style="fill:#231F20;" d="M207.26,211.707v37.859c0,4.475,3.626,8.1,8.1,8.1s8.1-3.626,8.1-8.1v-37.859   c0-4.475-3.626-8.1-8.1-8.1S207.26,207.233,207.26,211.707z"/>
	<path style="fill:#231F20;" d="M205.948,459.541h-47.321c-4.475,0-8.1,3.626-8.1,8.1s3.626,8.1,8.1,8.1h47.321   c4.475,0,8.1-3.626,8.1-8.1S210.422,459.541,205.948,459.541z"/>
	<circle style="fill:#231F20;" cx="87.214" cy="253.131" r="9.434"/>
	<path style="fill:#231F20;" d="M176.566,167.365c1.291,0.782,2.744,1.173,4.199,1.173s2.907-0.391,4.199-1.173   c29.329-17.776,46.839-48.841,46.839-83.097c0-34.257-17.511-65.32-46.839-83.097c-2.582-1.563-5.816-1.563-8.397,0   c-29.329,17.776-46.839,48.841-46.839,83.097C129.727,118.526,147.237,149.589,176.566,167.365z M180.765,150.596   c-9.551-7.556-15.121-18.946-15.121-31.348s5.57-23.791,15.121-31.347c9.551,7.556,15.121,18.945,15.121,31.347   S190.316,143.04,180.765,150.596z M180.765,17.747c21.907,15.142,34.838,39.655,34.838,66.523c0,9.036-1.469,17.802-4.243,26.039   c-2.561-16.209-12.008-30.458-26.395-39.178c-2.582-1.563-5.816-1.563-8.397,0c-14.387,8.719-23.834,22.968-26.395,39.178   c-2.775-8.236-4.243-17.003-4.243-26.039C145.927,57.401,158.859,32.889,180.765,17.747z"/>
</g>
<g>
</g>
<g>
</g>
<g>
</g>
<g>
</g>
<g>
</g>
<g>
</g>
<g>
</g>
<g>
</g>
<g>
</g>
<g>
</g>
<g>
</g>
<g>
</g>
<g>
</g>
<g>
</g>
<g>
</g>
</svg>
