<svg id="Layer_1" data-name="Layer 1" xmlns="http://www.w3.org/2000/svg" viewBox="0 0 64 64"><defs><style>.cls-1{fill:none;stroke:#000;stroke-linecap:round;stroke-linejoin:round;stroke-width:2px;}</style></defs><title>Icon Line</title><g id="Line"><path class="cls-1" d="M60.82,32a25,25,0,1,1-48.66-7.85l4.33,3.56,4.56,3.75a1.74,1.74,0,0,0,2.17-2.64l-5.6-4.61-4.09-3.36A25,25,0,0,1,60.82,32Z"/><path class="cls-1" d="M55.69,32A19.84,19.84,0,0,1,16,32a19.58,19.58,0,0,1,.47-4.29l4.56,3.75a1.74,1.74,0,0,0,2.17-2.64l-5.6-4.61A19.83,19.83,0,0,1,55.69,32Z"/><circle class="cls-1" cx="35.86" cy="32" r="11.74"/><path class="cls-1" d="M23.21,31.05a1.56,1.56,0,0,1-2.16.42l-4.56-3.75-4.33-3.56L10,22.39l2.77.07-.6-2.72,1.35,1.12,4.09,3.36,5.6,4.61A1.58,1.58,0,0,1,23.21,31.05Z"/><polygon class="cls-1" points="12.79 22.46 10.01 22.39 9.79 22.38 6.81 22.3 3.18 19.31 9.15 19.47 7.85 13.63 11.49 16.62 12.13 19.54 12.18 19.74 12.79 22.46"/></g></svg>