<svg xmlns="http://www.w3.org/2000/svg" shape-rendering="geometricPrecision" text-rendering="geometricPrecision" image-rendering="optimizeQuality" fill-rule="evenodd" clip-rule="evenodd" viewBox="0 0 512 396.94"><path fill-rule="nonzero" d="M49.63 0h336.95c13.64 0 26.03 5.64 35 14.6l.82.91c8.52 8.93 13.79 21.03 13.79 34.13v182.01c-8.72-2.42-17.63-4.27-26.69-5.48V192.2l-36.96 32.61c-21.85 1.34-42.73 6.43-62.42 14.53l-40.98-39.31-27.44 78.69c-.4 2.81-1.59 5.18-3.25 7.02l-1.7 1.57c-5.12 3.94-12.95 3.92-17.94-1.81l-78.13-118.22L26.7 262.86v79.61c0 6.25 2.62 11.97 6.77 16.13 4.19 4.19 9.95 6.81 16.16 6.81H235c10.6 9.86 21.96 18.81 33.95 26.69H49.63c-13.57 0-26.02-5.61-35.03-14.63-8.96-8.96-14.6-21.37-14.6-35V49.64c0-13.66 5.59-26.09 14.57-35.07l.92-.84C24.42 5.24 36.46 0 49.63 0zm337.74 292.43c9.66 0 18.41 3.92 24.74 10.24 6.33 6.33 10.24 15.07 10.24 24.74 0 9.65-3.91 18.41-10.24 24.73-6.33 6.33-15.06 10.25-24.74 10.25-9.65 0-18.4-3.92-24.73-10.25a34.82 34.82 0 0 1-10.24-24.73c0-9.65 3.91-18.41 10.24-24.74 6.33-6.32 15.08-10.24 24.73-10.24zm-122.68 29.88c28.32-34.25 72.44-63.49 117.77-64.39 48.01-.97 96.09 29.72 127.66 64.45a7.207 7.207 0 0 1 .47 9.14c-26.32 37.15-73.49 65.2-119.34 65.43-46.78.21-97.89-28.89-126.93-65.24-2.25-2.84-2.03-6.84.37-9.39zm20.04 4.96c26.61 30.85 65.31 52.73 106.3 52.55 39.43-.19 75.09-21.01 99.09-52.07-28.24-29.46-65.39-53.54-107.15-52.72-39.06.79-73.06 23.66-98.24 52.24zM26.7 227.39c29.55-26.64 76.84-63.89 106.71-88.99 4.87-4.22 12.12-4.13 16.91-.04.97.81 1.68 1.78 2.49 2.75l67.52 105.51 26.92-75.68c1.99-10.57 14.47-14.08 22.04-7.05l62.79 60.12 77.42-72.04V49.64c0-5.94-2.36-11.48-6.2-15.61l-.6-.56c-4.16-4.15-9.88-6.77-16.12-6.77H49.63c-6.04 0-11.54 2.34-15.61 6.12l-.58.62c-4.15 4.16-6.74 9.9-6.74 16.2v177.75zM267.63 61.07c11.02 0 21.04 4.49 28.28 11.73 7.24 7.24 11.72 17.23 11.72 28.28 0 11.02-4.48 21.04-11.72 28.28-7.24 7.24-17.26 11.72-28.28 11.72-11.04 0-21.04-4.48-28.28-11.72-7.24-7.24-11.72-17.26-11.72-28.28 0-11.05 4.48-21.04 11.72-28.28 7.24-7.24 17.24-11.73 28.28-11.73zm12.21 27.8a17.249 17.249 0 0 0-12.21-5.04c-4.77 0-9.09 1.93-12.2 5.04a17.198 17.198 0 0 0-5.05 12.21c0 4.77 1.93 9.09 5.05 12.2 3.11 3.11 7.43 5.05 12.2 5.05s9.09-1.94 12.21-5.05c3.11-3.11 5.04-7.43 5.04-12.2s-1.93-9.1-5.04-12.21z"/></svg>