<?xml version="1.0" encoding="UTF-8"?>
<!DOCTYPE svg PUBLIC "-//W3C//DTD SVG 1.1//EN" "http://www.w3.org/Graphics/SVG/1.1/DTD/svg11.dtd">
<!-- Creator: CorelDRAW -->
<svg xmlns="http://www.w3.org/2000/svg" xml:space="preserve" width="2048px" height="2048px" style="shape-rendering:geometricPrecision; text-rendering:geometricPrecision; image-rendering:optimizeQuality; fill-rule:evenodd; clip-rule:evenodd"
viewBox="0 0 2048 2048"
 xmlns:xlink="http://www.w3.org/1999/xlink">
 <defs>
  <style type="text/css">
   <![CDATA[
    .fil2 {fill:#22d79e;fill-rule:nonzero}
    .fil1 {fill:none}
    .fil0 {fill:#0891b2;fill-rule:nonzero}
   ]]>
  </style>
 </defs>
 <g id="Layer_x0020_1">
  <metadata id="CorelCorpID_0Corel-Layer"/>
  <path class="fil0" d="M1056 315.031c195.705,8.16379 372.166,90.8351 501.736,220.407 136.598,136.597 221.086,325.304 221.086,533.738 0,180.412 -63.3083,346.037 -168.907,475.891l-193.265 -193.265c57.3308,-79.5083 91.115,-177.122 91.115,-282.626 0,-133.584 -54.1489,-254.525 -141.695,-342.071 -80.4981,-80.4981 -189.235,-132.756 -310.07,-140.648l0 -271.426zm314.713 990.833l-151.678 -151.678c11.3658,-26.0374 17.6705,-54.7878 17.6705,-85.0099 0,-58.7327 -23.8099,-111.911 -62.3032,-150.404 -31.3642,-31.3642 -72.4784,-52.9772 -118.402,-59.9091l0 -208.247c103.16,7.77638 195.916,52.8355 264.82,121.74 75.9603,75.9603 122.943,180.903 122.943,296.821 0,87.8032 -26.9622,169.304 -73.0501,236.688zm-378.715 -447.002c-45.9248,6.93071 -87.0402,28.5449 -118.404,59.9091 -38.4933,38.4933 -62.3032,91.6713 -62.3032,150.404 0,29.2051 5.88898,57.0343 16.5414,82.369l-152.079 152.079c-45.1571,-66.9461 -71.5205,-147.617 -71.5205,-234.448 0,-115.918 46.9831,-220.86 122.943,-296.821 68.9056,-68.9056 161.661,-113.965 264.822,-121.741l0 208.249zm-362.231 490.747l-193.38 193.38c-104.587,-129.539 -167.214,-294.364 -167.214,-473.814 0,-208.434 84.4879,-397.141 221.086,-533.738 129.571,-129.572 306.032,-212.243 501.739,-220.407l0 271.426c-120.836,7.89213 -229.573,60.1489 -310.073,140.648 -87.5457,87.5457 -141.695,208.487 -141.695,342.071 0,104.535 33.1618,201.329 89.5359,280.434zm526.569 -212.537c-3.90118,3.95906 -6.56339,8.68111 -7.98308,13.6831 -5.59134,8.50749 -12.0319,16.4055 -19.2012,23.5748 -26.9079,26.9079 -64.0867,43.552 -105.154,43.552 -41.067,0 -78.2457,-16.6441 -105.154,-43.552 -26.9079,-26.9091 -43.552,-64.0867 -43.552,-105.155 0,-41.067 16.6441,-78.2457 43.552,-105.154 26.9079,-26.9079 64.0867,-43.552 105.154,-43.552l0.0011811 0c41.067,0 78.2445,16.6441 105.152,43.552 26.9079,26.9079 43.552,64.0867 43.552,105.154 0,24.4618 -5.9067,47.5441 -16.3677,67.8969zm27.5114 72.4264l146.571 146.573c-3.14646,3.36024 -6.34371,6.67087 -9.59883,9.92599 -75.9603,75.9603 -180.904,122.943 -296.822,122.943 -115.918,0 -220.862,-46.9831 -296.822,-122.943 -3.88347,-3.88347 -7.6878,-7.84725 -11.4165,-11.8795l146.638 -146.638c3.57638,4.17638 7.31103,8.21457 11.1969,12.1004 38.4933,38.4933 91.6713,62.3032 150.404,62.3032 58.7327,0 111.911,-23.8099 150.404,-62.3032 3.2563,-3.2563 6.40512,-6.62008 9.44528,-10.0819zm191.842 191.842l191.712 191.713c-3.1937,3.31418 -6.41103,6.60709 -9.66497,9.86103 -136.597,136.598 -325.304,221.086 -533.738,221.086 -208.434,0 -397.141,-84.4879 -533.738,-221.086 -3.88347,-3.88347 -7.71851,-7.81418 -11.5158,-11.7803l191.734 -191.734c3.75,4.01339 7.56379,7.96418 11.4473,11.8476 87.5457,87.5457 208.488,141.695 342.072,141.695 133.584,0 254.527,-54.1489 342.072,-141.695 3.25512,-3.25512 6.45827,-6.56103 9.61891,-9.90709z"/>
  <g id="_243118016">
   <rect id="_243117464" class="fil1" width="2048" height="2048"/>
   <rect id="_243119000" class="fil1" x="255.999" y="255.999" width="1536" height="1536"/>
  </g>
 </g>
</svg>
