<?xml version="1.0" encoding="utf-8"?>
<svg version="1.1" id="Layer_1" xmlns="http://www.w3.org/2000/svg" xmlns:xlink="http://www.w3.org/1999/xlink" x="0px" y="0px"
	 viewBox="0 0 512 512" style="enable-background:new 0 0 512 512;" xml:space="preserve">
<style type="text/css">
	.st0{fill:#AEDFF7;} /* Dark blue */
	.st1{fill:#111827;} /*  BACKGROUND + Outer thin Ring*/
	.st2{fill:#DAA520;} /* 3 BAR LINES  */
	.st3{fill:#0056A5;} /* Medium blue */
	.st4{fill:#0061F3;} /* Standard blue */
	.st5{fill:#B8860B;} /* PLANE LEFT side + 1star */
	.st6{fill:#FFFFFF;} /* White */
	.st7{fill:#FFD700;} /* PLANE RIGHT side + 2stars*/
	.st8{fill:#1C46C4;} /* Another standard blue */
	.st9{fill:#85C1E9;} /* Soft light blue */
	.st10{fill:#5D8EF9;} /* Lighter medium blue */
	.st11{fill:#8AC9F9;} /* Very light blue */
	.st12{fill:#9AC0DC;} /* Lightest shade of blue */
	.st13{fill:#0073E6;} /* Blue with a tint of green */
	.st14{fill:#17A2B8;} /* Teal blue */
	.st15{fill:#5AB2E0;stroke:#0074D9;stroke-width:0.6306;stroke-linecap:round;stroke-linejoin:round;stroke-miterlimit:10;}
	.st16{fill:#FFFFFF;stroke:#FFFFFF;stroke-width:0.737;stroke-linecap:round;stroke-linejoin:round;stroke-miterlimit:10;} /* White with outline */
	.st17{fill:none;} /* No fill */
	.st18{fill:#0056A5;} /* Medium blue */
</style>
<g>
	<g>
		<g>
			<path class="st1" d="M255.999,40.928c-118.778,0-215.071,96.294-215.071,215.074c0,118.776,96.293,215.068,215.071,215.068
				S471.07,374.778,471.07,256.002C471.07,137.222,374.777,40.928,255.999,40.928z"/>
		</g>
	</g>
	<g>
		<g>
			<path class="st1" d="M255.999,1C115.391,1,1,115.392,1,256.002C1,396.609,115.391,511,255.999,511S511,396.609,511,256.002
				C511,115.392,396.607,1,255.999,1z M255.999,502.831c-136.103,0-246.83-110.727-246.83-246.829
				c0-136.104,110.727-246.834,246.83-246.834c136.102,0,246.832,110.729,246.832,246.834
				C502.831,392.104,392.101,502.831,255.999,502.831z"/>
		</g>
	</g>
	<path class="st5" d="M137.259,269.316l2.169,0.517l-2.169,0.519c-12.683,3.044-22.583,12.531-25.769,24.678l-0.543,2.074
		l-0.538-2.074c-3.183-12.147-13.088-21.634-25.775-24.678l-2.16-0.519l2.16-0.517c12.688-3.045,22.592-12.535,25.775-24.678
		l0.538-2.076l0.543,2.076C114.677,256.781,124.576,266.271,137.259,269.316L137.259,269.316z"/>
	<path class="st7" d="M439.61,201.086l3.268,0.778l-3.268,0.781c-19.105,4.585-34.017,18.876-38.816,37.173l-0.819,3.124
		l-0.811-3.124c-4.795-18.297-19.715-32.588-38.826-37.173l-3.254-0.781l3.254-0.778c19.112-4.587,34.032-18.882,38.826-37.174
		l0.811-3.127l0.819,3.127C405.593,182.204,420.505,196.5,439.61,201.086L439.61,201.086z"/>
	<path class="st7" d="M341.451,160.407l1.523,0.379l-1.523,0.38c-8.895,2.229-15.84,9.177-18.074,18.074l-0.38,1.518l-0.379-1.518
		c-2.232-8.898-9.18-15.846-18.079-18.074l-1.515-0.38l1.515-0.379c8.899-2.23,15.847-9.181,18.079-18.076l0.379-1.519l0.38,1.519
		C325.611,151.226,332.556,158.177,341.451,160.407L341.451,160.407z"/>
	<polygon class="st7" points="256.002,99.3 291.634,329.364 389.359,354.479 	"/>
	<polygon class="st5" points="256.002,99.3 256.002,354.84 291.634,329.364 	"/>
	<polygon class="st5" points="255.998,99.3 220.366,329.364 122.641,354.479 	"/>
	<polygon class="st7" points="255.998,99.3 255.998,354.84 220.366,329.364 	"/>
	<path class="st2" d="M256.002,403.282c-2.761,0-5-2.239-5-5v-30.276c0-2.761,2.239-5,5-5s5,2.239,5,5v30.276
		C261.002,401.043,258.763,403.282,256.002,403.282z"/>
	<path class="st2" d="M219.958,417.7c-2.761,0-5-2.239-5-5v-44.694c0-2.761,2.239-5,5-5s5,2.239,5,5V412.7
		C224.958,415.461,222.72,417.7,219.958,417.7z"/>
	<path class="st2" d="M292.045,417.7c-2.761,0-5-2.239-5-5v-44.694c0-2.761,2.239-5,5-5s5,2.239,5,5V412.7
		C297.045,415.461,294.807,417.7,292.045,417.7z"/>
</g>
</svg>
