<?xml version="1.0" encoding="utf-8"?><svg version="1.1" id="Layer_1" xmlns="http://www.w3.org/2000/svg" xmlns:xlink="http://www.w3.org/1999/xlink" x="0px" y="0px" viewBox="0 0 122.88 41.99" style="enable-background:new 0 0 122.88 41.99" xml:space="preserve"><style type="text/css">.st0{fill-rule:evenodd;clip-rule:evenodd;}</style><g><path fill="#316dd4" class="st0" d="M4.75,0h113.38c2.61,0,4.75,2.15,4.75,4.75v32.49c0,2.6-2.15,4.75-4.75,4.75H4.75c-2.6,0-4.75-2.14-4.75-4.75 V4.75C0,2.14,2.14,0,4.75,0L4.75,0z M27.24,16.32h-6.08v-1.76c0-0.82-0.08-1.35-0.23-1.58c-0.15-0.23-0.41-0.34-0.77-0.34 c-0.39,0-0.69,0.15-0.89,0.46c-0.2,0.3-0.3,0.76-0.3,1.37c0,0.79,0.12,1.39,0.34,1.79c0.22,0.4,0.84,0.88,1.85,1.46 c2.9,1.64,4.73,2.99,5.49,4.04c0.76,1.05,1.14,2.74,1.14,5.07c0,1.7-0.21,2.95-0.63,3.75c-0.42,0.8-1.23,1.48-2.43,2.02 c-1.2,0.55-2.6,0.82-4.19,0.82c-1.75,0-3.24-0.32-4.48-0.94c-1.24-0.63-2.04-1.43-2.43-2.39c-0.38-0.97-0.57-2.35-0.57-4.13v-1.56 h6.08v2.9c0,0.89,0.09,1.47,0.25,1.72c0.17,0.26,0.47,0.38,0.91,0.38c0.44,0,0.76-0.16,0.97-0.49c0.21-0.32,0.32-0.8,0.32-1.44 c0-1.4-0.2-2.32-0.6-2.74c-0.42-0.43-1.44-1.15-3.06-2.17c-1.62-1.02-2.7-1.76-3.23-2.22c-0.53-0.46-0.97-1.1-1.31-1.91 c-0.34-0.81-0.52-1.85-0.52-3.12c0-1.82,0.24-3.16,0.74-4c0.49-0.84,1.28-1.5,2.38-1.98c1.1-0.48,2.42-0.71,3.98-0.71 c1.7,0,3.14,0.26,4.34,0.78c1.19,0.52,1.98,1.17,2.37,1.97c0.39,0.79,0.58,2.13,0.58,4.02V16.32L27.24,16.32z M44.73,9.09v15.92 c0,1.81-0.06,3.08-0.19,3.8c-0.13,0.73-0.49,1.49-1.1,2.25c-0.61,0.77-1.42,1.35-2.41,1.75c-1,0.4-2.18,0.6-3.54,0.6 c-1.5,0-2.83-0.24-3.98-0.71c-1.15-0.47-2.01-1.08-2.58-1.84c-0.57-0.76-0.91-1.56-1.01-2.39c-0.1-0.84-0.15-2.6-0.15-5.29V9.09 h6.56v17.86c0,1.04,0.06,1.71,0.18,1.99c0.12,0.29,0.36,0.44,0.71,0.44c0.4,0,0.67-0.16,0.79-0.48c0.12-0.32,0.18-1.07,0.18-2.26 V9.09H44.73L44.73,9.09z M47.27,9.09h6.52c2.06,0,3.62,0.15,4.68,0.46c1.06,0.3,1.92,0.92,2.57,1.84c0.65,0.93,0.98,2.42,0.98,4.48 c0,1.39-0.23,2.36-0.69,2.91c-0.46,0.55-1.37,0.97-2.73,1.26c1.52,0.33,2.55,0.86,3.09,1.61c0.54,0.75,0.81,1.9,0.81,3.46v2.21 c0,1.61-0.2,2.8-0.58,3.58c-0.39,0.77-1,1.3-1.85,1.59c-0.85,0.29-2.59,0.43-5.22,0.43h-7.56V9.09L47.27,9.09z M53.83,13.15v5.3 c0.28-0.01,0.49-0.02,0.64-0.02c0.63,0,1.03-0.15,1.2-0.45c0.18-0.3,0.26-1.16,0.26-2.57c0-0.75-0.07-1.27-0.21-1.57 c-0.14-0.3-0.33-0.49-0.56-0.57C54.93,13.21,54.49,13.16,53.83,13.15L53.83,13.15z M53.83,22.16v6.68c0.9-0.03,1.48-0.17,1.73-0.41 c0.25-0.25,0.37-0.85,0.37-1.82v-2.23c0-1.02-0.11-1.64-0.33-1.86C55.37,22.31,54.78,22.19,53.83,22.16L53.83,22.16z M85.04,9.09 V32.9h-5.73l-0.02-16.08L77.01,32.9H73l-2.4-15.72L70.58,32.9h-5.73V9.09h8.47c0.24,1.44,0.5,3.14,0.78,5.07l0.93,6.05l1.49-11.12 H85.04L85.04,9.09z M94.24,9.09V32.9h-6.56V9.09H94.24L94.24,9.09z M110.04,9.09v4.76h-3.85V32.9h-6.56V13.85h-3.88V9.09H110.04 L110.04,9.09z"/></g></svg>