<?xml version="1.0" encoding="utf-8"?><svg version="1.1" id="Layer_1" xmlns="http://www.w3.org/2000/svg" xmlns:xlink="http://www.w3.org/1999/xlink" x="0px" y="0px" viewBox="0 0 88.65 122.88" style="enable-background:new 0 0 88.65 122.88" xml:space="preserve"><style type="text/css">.st0{fill-rule:evenodd;clip-rule:evenodd;}</style><g><path class="st0" d="M88.65,3.62v115.63c0,1.99-1.63,3.62-3.62,3.62H3.62c-1.99,0-3.62-1.63-3.62-3.62V3.62C0,1.63,1.63,0,3.62,0 h81.4C87.02,0,88.65,1.63,88.65,3.62L88.65,3.62z M46.57,36.51l-3.48,17.67l-3.53-5.31c-7.59,3.05-11.85,8.07-12.49,15.81 c-6.24-10.9-2.45-20.67,5.45-26.4l-3.6-5.42L46.57,36.51L46.57,36.51L46.57,36.51L46.57,36.51L46.57,36.51L46.57,36.51z M42.08,78.02l3.48-17.67l3.53,5.31c7.59-3.05,11.85-8.07,12.49-15.81c6.24,10.9,2.45,20.67-5.45,26.4l3.6,5.42L42.08,78.02 L42.08,78.02L42.08,78.02L42.08,78.02L42.08,78.02L42.08,78.02z M44.32,110.82c2.29,0,4.15,1.86,4.15,4.15 c0,2.29-1.86,4.15-4.15,4.15c-2.29,0-4.15-1.86-4.15-4.15C40.18,112.68,42.03,110.82,44.32,110.82L44.32,110.82z M83.74,6.46 v100.67H5.42V6.46H83.74L83.74,6.46z"/></g></svg>